<?xml version="1.0" encoding="utf-8"?>
<!-- Generator: Adobe Illustrator 26.3.1, SVG Export Plug-In . SVG Version: 6.00 Build 0)  -->
<svg version="1.1" id="Warstwa_1" xmlns="http://www.w3.org/2000/svg" xmlns:xlink="http://www.w3.org/1999/xlink" x="0px" y="0px"
	 viewBox="0 0 430 430" style="enable-background:new 0 0 430 430;" xml:space="preserve">
<style type="text/css">
	.Styl_x0020_grafiki_x0020_26{fill:#ebe6ef;}
	.Styl_x0020_grafiki_x0020_27{opacity:0.5;fill:#ebe6ef;}
	.Styl_x0020_grafiki_x0020_20{fill:#2ca58d;}
	.st0{fill:#646E78;}
	.st1{opacity:0.5;fill:#646E78;}
	.st2{fill:#121331;}
	.st3{fill:#3a3347;}
	.st4{fill:#4BB3FD;}
	.st5{opacity:0.5;fill:#4BB3FD;}
	.st6{opacity:0.5;fill:#3a3347;}
	.st7{fill:none;stroke:#121331;stroke-width:7;stroke-linecap:round;stroke-linejoin:round;stroke-miterlimit:10;}
	.st8{opacity:0.5;}
	.st9{fill:#ebe6ef;}
	.st10{opacity:0.5;fill:#ebe6ef;}
	.st11{fill:#F9C9C0;}
	.st12{fill:#2ca58d;}
	.st13{opacity:0.5;fill:#2ca58d;}
	.st14{opacity:0.5;fill:#F9C9C0;}
	.st15{fill:#F24C00;}
	.st16{opacity:0.5;fill:#F24C00;}
	.st17{fill:#B26836;}
	.st18{opacity:0.5;fill:#B26836;}
	.st19{fill:#FFFFFF;}
	.st20{fill:#F7F8F9;}
	.st21{fill:#FBFAFC;}
	.st22{fill:#FFC738;}
	.st23{opacity:0.5;fill:#FFC738;}
	.st24{fill:#FCFCFC;}
	.st25{fill:#92140C;}
	.st26{fill:#F28BA8;}
	.st27{opacity:0.5;fill:#F28BA8;}
	.st28{opacity:0.25;fill:#F9C9C0;}
	.st29{opacity:0.5;fill:#92140C;}
	.st30{opacity:0.1;fill:#3a3347;}
	.st31{fill:none;stroke:#08A88A;stroke-width:12;stroke-linecap:round;stroke-linejoin:round;stroke-miterlimit:10;}
	.st32{fill:none;stroke:#121331;stroke-width:12;stroke-linecap:round;stroke-linejoin:round;stroke-miterlimit:10;}
	.st33{fill:none;stroke:#646E78;stroke-width:7;stroke-linecap:round;stroke-linejoin:round;stroke-miterlimit:10;}
	.st34{fill:#08A88A;}
	.st35{fill:none;stroke:#ebe6ef;stroke-width:7;stroke-linecap:round;stroke-linejoin:round;stroke-miterlimit:10;}
	.st36{fill:#08A789;}
	.st37{fill:none;stroke:#F28BA8;stroke-width:7;stroke-linecap:round;stroke-linejoin:round;stroke-miterlimit:10;}
	.st38{fill:none;stroke:#FFC738;stroke-width:7;stroke-linecap:round;stroke-linejoin:round;stroke-miterlimit:10;}
	.st39{fill:none;stroke:#3a3347;stroke-width:7;stroke-linecap:round;stroke-linejoin:round;stroke-miterlimit:10;}
</style>
<g>
	<polyline class="Styl_x0020_grafiki_x0020_20" points="186.75,54.88 186.75,115.6 243.25,115.6 243.25,54.88 	"/>
	<path class="st12" d="M253.84,58.38h-77.67c-1.93,0-3.5-1.57-3.5-3.5s1.57-3.5,3.5-3.5h77.67c1.93,0,3.5,1.57,3.5,3.5
		S255.77,58.38,253.84,58.38z"/>
	<path class="Styl_x0020_grafiki_x0020_26" d="M194.53,114.94h40.94c25.67,0,46.47,20.81,46.47,46.47v202.64
		c0,6.11-4.95,11.06-11.06,11.06H159.12c-6.11,0-11.06-4.95-11.06-11.06V161.41C148.06,135.75,168.86,114.94,194.53,114.94z"/>
	<circle class="Styl_x0020_grafiki_x0020_20" cx="215" cy="220" r="44.64"/>
	<path class="st3" d="M244.38,297.44h-58.75c-1.93,0-3.5-1.57-3.5-3.5s1.57-3.5,3.5-3.5h58.75c1.93,0,3.5,1.57,3.5,3.5
		S246.31,297.44,244.38,297.44z"/>
	<path class="st3" d="M244.38,324.44h-58.75c-1.93,0-3.5-1.57-3.5-3.5s1.57-3.5,3.5-3.5h58.75c1.93,0,3.5,1.57,3.5,3.5
		S246.31,324.44,244.38,324.44z"/>
	<path class="Styl_x0020_grafiki_x0020_27" d="M181.42,375.12c-6.11,0-11.06-4.95-11.06-11.06V161.41
		c0-25.66,20.79-46.46,46.45-46.47h-22.28c-25.67,0-46.47,20.81-46.47,46.47v202.64c0,6.11,4.95,11.06,11.06,11.06h111.77
		c0,0,0.01,0,0.01,0H181.42z"/>
	<path class="st13" d="M209.05,58.38C209.05,58.38,209.05,58.38,209.05,58.38v-3.5h-0.94c-1.21-2.09-3.47-3.5-6.06-3.5h-25.72
		c-1.72,0-3.31,1.16-3.61,2.85c-0.4,2.22,1.29,4.15,3.44,4.15h10.59v57.22l22.3,0V58.38L209.05,58.38z"/>
</g>
</svg>
