<svg width="430" height="430" viewBox="0 0 430 430" fill="none" xmlns="http://www.w3.org/2000/svg">
<path d="M334.14 334.14C310.576 357.704 280.554 373.751 247.87 380.252C215.187 386.754 181.309 383.417 150.521 370.665C119.734 357.912 93.419 336.316 74.905 308.608C56.3911 280.9 46.5093 248.324 46.5093 215C46.5093 181.676 56.3911 149.1 74.905 121.392C93.419 93.6838 119.734 72.088 150.521 59.3354C181.309 46.5828 215.187 43.2462 247.87 49.7476C280.554 56.2489 310.576 72.2961 334.14 95.86C349.788 111.504 362.201 130.078 370.67 150.52C379.139 170.963 383.498 192.873 383.498 215C383.498 237.127 379.139 259.037 370.67 279.48C362.201 299.922 349.788 318.496 334.14 334.14V334.14Z" fill="#4bb3fd"/>
<path d="M312.37 312.37C293.112 331.627 268.576 344.742 241.865 350.054C215.154 355.367 187.467 352.64 162.306 342.218C137.145 331.796 115.64 314.146 100.509 291.502C85.3786 268.857 77.3027 242.234 77.3027 215C77.3027 187.766 85.3786 161.143 100.509 138.498C115.64 115.854 137.145 98.2045 162.306 87.7822C187.467 77.3599 215.154 74.6327 241.865 79.9456C268.576 85.2584 293.112 98.3727 312.37 117.63C325.158 130.416 335.302 145.596 342.224 162.303C349.145 179.01 352.707 196.916 352.707 215C352.707 233.084 349.145 250.99 342.224 267.697C335.302 284.404 325.158 299.584 312.37 312.37V312.37Z" fill="#ebe6ef"/>
<g style="mix-blend-mode:multiply" opacity="0.5">
<path d="M300.52 322.93C285.208 335.055 267.492 343.784 248.548 348.538C229.605 353.292 209.866 353.961 190.644 350.503C171.421 347.044 153.154 339.536 137.056 328.477C120.957 317.418 107.395 303.061 97.2699 286.359C87.1448 269.657 80.6882 250.993 78.3288 231.605C75.9694 212.217 77.7612 192.548 83.5852 173.906C89.4092 155.263 99.1321 138.072 112.109 123.475C125.085 108.878 141.018 97.2079 158.85 89.24C132.565 110.079 114.789 139.795 108.858 172.81C102.928 205.825 109.25 239.87 126.64 268.554C144.029 297.239 171.289 318.59 203.304 328.602C235.319 338.614 269.887 336.597 300.52 322.93V322.93Z" fill="#ebe6ef"/>
</g>
<path d="M215 215.26C214.072 215.26 213.182 214.891 212.525 214.235C211.869 213.579 211.5 212.688 211.5 211.76V142.76C211.5 141.832 211.869 140.942 212.525 140.285C213.182 139.629 214.072 139.26 215 139.26C215.928 139.26 216.818 139.629 217.475 140.285C218.131 140.942 218.5 141.832 218.5 142.76V211.76C218.5 212.688 218.131 213.579 217.475 214.235C216.818 214.891 215.928 215.26 215 215.26V215.26Z" fill="#f24c00"/>
<path d="M215 218.5C214.303 218.504 213.621 218.3 213.04 217.914C212.46 217.528 212.008 216.977 211.743 216.332C211.478 215.688 211.411 214.979 211.551 214.296C211.691 213.613 212.032 212.988 212.53 212.5L248.63 176.39C248.958 176.062 249.348 175.801 249.777 175.624C250.206 175.446 250.666 175.354 251.13 175.354C251.594 175.354 252.054 175.446 252.483 175.624C252.912 175.801 253.302 176.062 253.63 176.39C253.958 176.718 254.219 177.108 254.396 177.537C254.574 177.966 254.666 178.426 254.666 178.89C254.666 179.354 254.574 179.814 254.396 180.243C254.219 180.672 253.958 181.062 253.63 181.39L217.52 217.5C217.189 217.827 216.795 218.084 216.362 218.256C215.929 218.428 215.466 218.511 215 218.5V218.5Z" fill="#3a3347"/>
<path d="M215 227.04C221.649 227.04 227.04 221.65 227.04 215C227.04 208.35 221.649 202.96 215 202.96C208.35 202.96 202.96 208.35 202.96 215C202.96 221.65 208.35 227.04 215 227.04Z" fill="#3a3347"/>
<path d="M215 338.85C214.072 338.85 213.182 338.481 212.525 337.825C211.869 337.168 211.5 336.278 211.5 335.35V317.35C211.5 316.422 211.869 315.531 212.525 314.875C213.182 314.219 214.072 313.85 215 313.85C215.928 313.85 216.818 314.219 217.475 314.875C218.131 315.531 218.5 316.422 218.5 317.35V335.35C218.5 336.278 218.131 337.168 217.475 337.825C216.818 338.481 215.928 338.85 215 338.85Z" fill="#3a3347"/>
<path d="M300.1 303.6C299.177 303.606 298.289 303.247 297.63 302.6L284.87 289.84C284.213 289.184 283.845 288.293 283.845 287.365C283.845 286.437 284.213 285.546 284.87 284.89C285.526 284.234 286.417 283.865 287.345 283.865C288.273 283.865 289.164 284.234 289.82 284.89L302.58 297.65C303.078 298.138 303.42 298.765 303.559 299.448C303.699 300.132 303.632 300.842 303.365 301.487C303.099 302.132 302.645 302.683 302.063 303.068C301.482 303.453 300.798 303.656 300.1 303.65V303.6Z" fill="#3a3347"/>
<path d="M335.35 218.5H317.35C316.422 218.5 315.532 218.131 314.875 217.475C314.219 216.818 313.85 215.928 313.85 215C313.85 214.072 314.219 213.182 314.875 212.525C315.532 211.869 316.422 211.5 317.35 211.5H335.35C336.278 211.5 337.169 211.869 337.825 212.525C338.481 213.182 338.85 214.072 338.85 215C338.85 215.928 338.481 216.818 337.825 217.475C337.169 218.131 336.278 218.5 335.35 218.5Z" fill="#3a3347"/>
<path d="M287.34 146.16C286.645 146.159 285.966 145.952 285.389 145.565C284.812 145.178 284.363 144.629 284.098 143.986C283.834 143.344 283.766 142.637 283.903 141.956C284.041 141.275 284.377 140.65 284.87 140.16L297.63 127.4C298.293 126.744 299.19 126.377 300.123 126.382C301.056 126.387 301.949 126.762 302.605 127.425C303.262 128.088 303.628 128.985 303.623 129.918C303.618 130.851 303.243 131.744 302.58 132.4L289.82 145.16C289.157 145.807 288.266 146.166 287.34 146.16V146.16Z" fill="#3a3347"/>
<path d="M215 116.19C214.072 116.19 213.182 115.821 212.525 115.165C211.869 114.508 211.5 113.618 211.5 112.69V94.69C211.5 93.7617 211.869 92.8715 212.525 92.2151C213.182 91.5587 214.072 91.19 215 91.19C215.928 91.19 216.818 91.5587 217.475 92.2151C218.131 92.8715 218.5 93.7617 218.5 94.69V112.69C218.5 113.618 218.131 114.508 217.475 115.165C216.818 115.821 215.928 116.19 215 116.19V116.19Z" fill="#3a3347"/>
<path d="M142.66 146.16C141.734 146.166 140.843 145.807 140.18 145.16L127.42 132.4C127.092 132.072 126.831 131.682 126.653 131.253C126.476 130.824 126.384 130.364 126.384 129.9C126.384 129.436 126.476 128.976 126.653 128.547C126.831 128.118 127.092 127.728 127.42 127.4C127.748 127.072 128.138 126.811 128.567 126.634C128.996 126.456 129.456 126.364 129.92 126.364C130.384 126.364 130.844 126.456 131.273 126.634C131.702 126.811 132.092 127.072 132.42 127.4L145.18 140.16C145.673 140.65 146.009 141.275 146.147 141.956C146.284 142.637 146.216 143.344 145.952 143.986C145.687 144.629 145.238 145.178 144.661 145.565C144.084 145.952 143.405 146.159 142.71 146.16H142.66Z" fill="#3a3347"/>
<path d="M112.69 218.5H94.6899C93.7617 218.5 92.8714 218.131 92.2151 217.475C91.5587 216.818 91.1899 215.928 91.1899 215C91.1899 214.072 91.5587 213.182 92.2151 212.525C92.8714 211.869 93.7617 211.5 94.6899 211.5H112.69C113.618 211.5 114.508 211.869 115.165 212.525C115.821 213.182 116.19 214.072 116.19 215C116.19 215.928 115.821 216.818 115.165 217.475C114.508 218.131 113.618 218.5 112.69 218.5V218.5Z" fill="#3a3347"/>
<path d="M129.9 303.6C129.202 303.606 128.518 303.403 127.936 303.018C127.354 302.633 126.901 302.082 126.635 301.437C126.368 300.792 126.3 300.082 126.44 299.398C126.58 298.715 126.921 298.088 127.42 297.6L140.18 284.84C140.836 284.184 141.726 283.815 142.655 283.815C143.583 283.815 144.473 284.184 145.13 284.84C145.786 285.496 146.155 286.387 146.155 287.315C146.155 288.243 145.786 289.134 145.13 289.79L132.37 302.55C132.048 302.879 131.664 303.142 131.24 303.322C130.816 303.502 130.36 303.597 129.9 303.6V303.6Z" fill="#3a3347"/>
<g style="mix-blend-mode:multiply" opacity="0.4">
<path d="M305.79 357C286.543 369.27 265.005 377.502 242.481 381.198C219.958 384.893 196.918 383.975 174.76 378.498C152.602 373.022 131.787 363.102 113.578 349.339C95.3688 335.577 80.1452 318.259 68.8303 298.436C57.5154 278.613 50.3451 256.698 47.7543 234.021C45.1634 211.343 47.2061 188.376 53.7583 166.512C60.3105 144.648 71.2358 124.342 85.8714 106.827C100.507 89.3125 118.548 74.953 138.9 64.62C102.467 87.9074 76.3785 124.306 66.0292 166.289C55.68 208.272 61.8622 252.626 83.2971 290.178C104.732 327.731 139.78 355.609 181.192 368.046C222.604 380.483 267.212 376.529 305.79 357V357Z" fill="#4bb3fd"/>
</g>
</svg>
