<?xml version="1.0" encoding="utf-8"?>
<!-- Generator: Adobe Illustrator 24.0.2, SVG Export Plug-In . SVG Version: 6.00 Build 0)  -->
<svg version="1.1" id="Warstwa_1" xmlns="http://www.w3.org/2000/svg" xmlns:xlink="http://www.w3.org/1999/xlink" x="0px" y="0px"
	 viewBox="0 0 430 430" style="enable-background:new 0 0 430 430;" xml:space="preserve">
<style type="text/css">
	.st0{fill:#4BB3FD;}
	.st1{opacity:0.5;}
	.st2{opacity:0;}
	.st3{fill:#121331;}
	.st4{fill:#3A3347;}
	.st5{fill:#F28BA8;}
	.st6{fill:#FFC738;}
	.st7{fill:#ebe6ef;}
	.st8{fill:#2CA58D;}
	.st9{fill:#f24c00;}
	.st10{fill:#F9C9C0;}
	.st11{fill:#646E78;}
	.st12{opacity:0.4;}
	.st13{fill:#b26836;}
	.st14{opacity:0.8;}
</style>
<g>
	<polygon class="st7" points="348.13,191.3 348.13,375.59 81.87,375.59 81.87,191.14 215,70.35 238.04,91.28 	"/>
</g>
<g class="st1">
	<polygon class="st7" points="238.04,91.28 103.72,213.14 103.72,375.59 81.87,375.59 81.87,191.14 215,70.35 	"/>
</g>
<g>
	<path class="st13" d="M169.1,375.59V237.95h91.8v137.64H169.1z"/>
</g>
<g class="st1">
	<rect x="169.1" y="237.95" class="st13" width="20.18" height="137.64"/>
</g>
<g>
	<path class="st4" d="M270.66,103.48V68.84h47.14v78.34L270.66,103.48z"/>
</g>
<g>
	<path class="st3" d="M348.13,379.09H81.87c-1.93,0-3.5-1.57-3.5-3.5V191.14c0-0.99,0.42-1.93,1.15-2.59L212.65,67.76
		c1.33-1.21,3.37-1.21,4.71,0l133.13,120.95c0.73,0.66,1.15,1.6,1.15,2.59v184.29C351.63,377.52,350.06,379.09,348.13,379.09z
		 M85.37,372.09h259.26V192.85L215,75.08L85.37,192.69V372.09z"/>
</g>
<g class="st1">
	<polygon class="st4" points="285.91,68.84 270.66,68.84 270.66,103.48 285.91,117.62 	"/>
</g>
<g>
	<path class="st3" d="M317.8,150.68c-0.87,0-1.72-0.32-2.38-0.93l-47.14-43.7c-0.71-0.66-1.12-1.59-1.12-2.57V68.84
		c0-1.93,1.57-3.5,3.5-3.5h47.14c1.93,0,3.5,1.57,3.5,3.5v78.34c0,1.39-0.82,2.65-2.1,3.21
		C318.75,150.59,318.27,150.68,317.8,150.68z M274.16,101.95l40.14,37.21V72.34h-40.14V101.95z"/>
</g>
<g>
	<g>
		<path class="st9" d="M367.27,221.94L215.02,83.73L62.72,221.91l-16.8-18.52l160.7-145.8c4.77-4.32,12.04-4.32,16.8,0
			l160.65,145.83L367.27,221.94z"/>
	</g>
</g>
<g>
	<path class="st3" d="M237.95,312.8c-0.39,0-0.78-0.04-1.17-0.12c-0.38-0.07-0.76-0.19-1.12-0.34c-0.37-0.15-0.72-0.33-1.04-0.55
		c-0.33-0.22-0.64-0.47-0.91-0.75c-1.12-1.11-1.76-2.66-1.76-4.24c0-0.39,0.04-0.78,0.12-1.17c0.08-0.38,0.19-0.76,0.34-1.12
		c0.15-0.37,0.34-0.71,0.55-1.04c0.22-0.33,0.47-0.63,0.75-0.91c0.27-0.28,0.58-0.53,0.91-0.75c0.32-0.21,0.67-0.4,1.04-0.55
		c0.36-0.15,0.74-0.26,1.12-0.34c1.95-0.39,4.02,0.25,5.41,1.64c0.28,0.28,0.53,0.58,0.75,0.91c0.22,0.33,0.4,0.67,0.55,1.04
		c0.15,0.36,0.27,0.74,0.34,1.12c0.08,0.39,0.12,0.78,0.12,1.17s-0.04,0.79-0.12,1.18c-0.07,0.38-0.19,0.76-0.34,1.12
		c-0.15,0.36-0.33,0.71-0.55,1.03c-0.22,0.33-0.47,0.64-0.75,0.91c-0.28,0.28-0.58,0.53-0.91,0.75c-0.32,0.22-0.67,0.4-1.03,0.55
		c-0.37,0.15-0.74,0.27-1.13,0.34C238.74,312.76,238.34,312.8,237.95,312.8z"/>
</g>
<g>
	<g>
		<path class="st3" d="M367.27,225.44c-0.87,0-1.71-0.32-2.35-0.91L215.02,88.46L65.07,224.5c-1.43,1.3-3.64,1.19-4.94-0.24
			l-16.8-18.52c-0.62-0.69-0.95-1.59-0.9-2.52s0.46-1.8,1.14-2.42L204.27,55c6.13-5.56,15.38-5.56,21.5,0l160.65,145.83
			c1.43,1.3,1.54,3.51,0.24,4.94l-16.8,18.51c-0.62,0.69-1.5,1.1-2.42,1.14C367.39,225.44,367.33,225.44,367.27,225.44z
			 M215.02,80.23c0.84,0,1.69,0.3,2.35,0.91l149.66,135.86l12.1-13.33L221.07,60.19c-3.45-3.13-8.65-3.13-12.1,0L50.87,203.63
			l12.09,13.33L212.67,81.14C213.34,80.53,214.18,80.23,215.02,80.23z"/>
	</g>
</g>
<g>
	<path class="st3" d="M260.9,379.09h-91.8c-1.93,0-3.5-1.57-3.5-3.5V237.95c0-1.93,1.57-3.5,3.5-3.5h91.8c1.93,0,3.5,1.57,3.5,3.5
		v137.64C264.4,377.53,262.83,379.09,260.9,379.09z M172.6,372.09h84.8V241.45h-84.8V372.09z"/>
</g>
</svg>
