<svg xmlns="http://www.w3.org/2000/svg" viewBox="0 0 430 430">
  <defs>
    <style>
      .cls-1 {
        isolation: isolate;
      }

      .cls-2, .cls-3 {
        fill: #1f1f1f;
      }

      .cls-3 {
        mix-blend-mode: multiply;
        opacity: 0.5;
      }

      .cls-4 {
        fill: #fed74c;
      }

      .cls-5 {
        fill: #121331;
      }
    </style>
  </defs>
  <g class="cls-1">
    <g id="Warstwa_1" data-name="Warstwa 1">
      <g>
        <rect class="cls-2" x="86.82" y="46.18" width="256.36" height="337.64" rx="24.82"/>
        <path class="cls-3" d="M101.45,359V71a24.83,24.83,0,0,1,24.83-24.82H111.64A24.82,24.82,0,0,0,86.82,71V359a24.82,24.82,0,0,0,24.82,24.82h14.64A24.83,24.83,0,0,1,101.45,359Z"/>
        <path class="cls-4" d="M307.9,308.37H121.62a8.75,8.75,0,0,1-8.75-8.75l.24-218.49a8.75,8.75,0,0,1,8.75-8.75H308.14a8.75,8.75,0,0,1,8.75,8.75l-.24,218.49A8.75,8.75,0,0,1,307.9,308.37Z"/>
        <path class="cls-2" d="M290.17,282.45h0l-47.71-.22a3.5,3.5,0,1,1,0-7l47.71.22a3.5,3.5,0,0,1,0,7Zm-76,0H136.7a3.5,3.5,0,0,1,0-7h77.48a3.5,3.5,0,0,1,0,7Zm76-30h0L215,252.23a3.5,3.5,0,0,1,0-7h0l75.2.22a3.5,3.5,0,0,1,0,7Zm-103.49,0h-50a3.5,3.5,0,0,1,0-7h50a3.5,3.5,0,0,1,0,7Zm74.75-29.75h0l-124.74-.25a3.5,3.5,0,0,1,0-7h0l124.74.25a3.5,3.5,0,0,1,0,7Zm28.28-.22a3.5,3.5,0,0,1-.17-7l.46,0a3.5,3.5,0,0,1,.35,7l-.46,0Zm.54-30h0l-87.71-.22a3.5,3.5,0,0,1,0-7h0l87.71.22a3.5,3.5,0,0,1,0,7Zm-116,0H136.77a3.5,3.5,0,0,1,0-7h37.49a3.5,3.5,0,0,1,0,7Zm116-30h0L265,162.23a3.5,3.5,0,0,1,0-7h0l25.21.23a3.5,3.5,0,0,1,0,7Zm-53.49,0h-100a3.5,3.5,0,0,1,0-7h100a3.5,3.5,0,0,1,0,7Zm53.49-30h0l-47.71-.22a3.5,3.5,0,0,1,0-7l47.7.22a3.5,3.5,0,0,1,0,7Zm-76,0H136.77a3.5,3.5,0,0,1,0-7h77.49a3.5,3.5,0,1,1,0,7Zm76-30h0L175,102.23a3.5,3.5,0,0,1,0-7h0l115.2.22a3.5,3.5,0,1,1,0,7Zm-143.49,0h-10a3.5,3.5,0,0,1,0-7h10a3.5,3.5,0,0,1,0,7Z"/>
        <path class="cls-3" d="M257.47,356.19a9.8,9.8,0,1,1,9.8-9.8A9.82,9.82,0,0,1,257.47,356.19Zm0-10a.2.2,0,0,0-.2.2c0,.22.4.22.4,0A.2.2,0,0,0,257.47,346.19Z"/>
        <path class="cls-3" d="M171,356.19a9.8,9.8,0,1,1,9.8-9.8A9.82,9.82,0,0,1,171,356.19Zm0-10a.2.2,0,0,0-.2.2c0,.22.4.22.4,0A.2.2,0,0,0,171,346.19Z"/>
        <path class="cls-5" d="M214.23,355.1a8.71,8.71,0,1,1,8.71-8.71A8.72,8.72,0,0,1,214.23,355.1Zm0-16.42a7.71,7.71,0,1,0,7.71,7.71A7.72,7.72,0,0,0,214.23,338.68Z"/>
        <path class="cls-2" d="M214.23,358.1a11.71,11.71,0,1,1,11.71-11.71A11.73,11.73,0,0,1,214.23,358.1Zm0-16.42a4.71,4.71,0,1,0,4.71,4.71A4.72,4.72,0,0,0,214.23,341.68Z"/>
        <path class="cls-2" d="M214.23,358.1a11.71,11.71,0,1,1,11.71-11.71A11.73,11.73,0,0,1,214.23,358.1Zm0-16.42a4.71,4.71,0,1,0,4.71,4.71A4.72,4.72,0,0,0,214.23,341.68Z"/>
        <path class="cls-3" d="M214.23,358.1a11.71,11.71,0,1,1,11.71-11.71A11.73,11.73,0,0,1,214.23,358.1Zm0-16.42a4.71,4.71,0,1,0,4.71,4.71A4.72,4.72,0,0,0,214.23,341.68Z"/>
      </g>
    </g>
  </g>
</svg>
