<?xml version="1.0" encoding="utf-8"?>
<!-- Generator: Adobe Illustrator 26.3.1, SVG Export Plug-In . SVG Version: 6.00 Build 0)  -->
<svg version="1.1" id="Warstwa_1" xmlns="http://www.w3.org/2000/svg" xmlns:xlink="http://www.w3.org/1999/xlink" x="0px" y="0px"
	 viewBox="0 0 430 430" style="enable-background:new 0 0 430 430;" xml:space="preserve">
<style type="text/css">
	.Styl_x0020_grafiki_x0020_26{fill:#fed74c;}
	.Styl_x0020_grafiki_x0020_27{opacity:0.5;fill:#fed74c;}
	.Styl_x0020_grafiki_x0020_20{fill:#0155b7;}
	.Styl_x0020_grafiki_x0020_21{opacity:0.5;fill:#0155b7;}
	.st0{fill:#646E78;}
	.st1{opacity:0.5;fill:#646E78;}
	.st2{fill:#1f1f1f;}
	.st3{fill:#3A3347;}
	.st4{fill:#4BB3FD;}
	.st5{opacity:0.5;fill:#4BB3FD;}
	.st6{opacity:0.5;fill:#3A3347;}
	.st7{fill:none;stroke:#1f1f1f;stroke-width:7;stroke-linecap:round;stroke-linejoin:round;stroke-miterlimit:10;}
	.st8{opacity:0.5;}
	.st9{fill:#fed74c;}
	.st10{opacity:0.5;fill:#fed74c;}
	.st11{fill:#F9C9C0;}
	.st12{fill:#0155b7;}
	.st13{opacity:0.5;fill:#0155b7;}
	.st14{opacity:0.5;fill:#F9C9C0;}
	.st15{fill:#F24C00;}
	.st16{opacity:0.5;fill:#F24C00;}
	.st17{fill:#B26836;}
	.st18{opacity:0.5;fill:#B26836;}
	.st19{fill:#FFFFFF;}
	.st20{fill:#F7F8F9;}
	.st21{fill:#FBFAFC;}
	.st22{fill:#FFC738;}
	.st23{opacity:0.5;fill:#FFC738;}
	.st24{fill:#FCFCFC;}
	.st25{fill:#92140C;}
	.st26{fill:#F28BA8;}
	.st27{opacity:0.5;fill:#F28BA8;}
	.st28{opacity:0.25;fill:#F9C9C0;}
	.st29{opacity:0.5;fill:#92140C;}
	.st30{opacity:0.1;fill:#3A3347;}
	.st31{fill:none;stroke:#08A88A;stroke-width:12;stroke-linecap:round;stroke-linejoin:round;stroke-miterlimit:10;}
	.st32{fill:none;stroke:#1f1f1f;stroke-width:12;stroke-linecap:round;stroke-linejoin:round;stroke-miterlimit:10;}
	.st33{fill:none;stroke:#646E78;stroke-width:7;stroke-linecap:round;stroke-linejoin:round;stroke-miterlimit:10;}
	.st34{fill:#08A88A;}
	.st35{fill:none;stroke:#fed74c;stroke-width:7;stroke-linecap:round;stroke-linejoin:round;stroke-miterlimit:10;}
	.st36{fill:#08A789;}
	.st37{fill:none;stroke:#F28BA8;stroke-width:7;stroke-linecap:round;stroke-linejoin:round;stroke-miterlimit:10;}
	.st38{fill:none;stroke:#FFC738;stroke-width:7;stroke-linecap:round;stroke-linejoin:round;stroke-miterlimit:10;}
	.st39{fill:none;stroke:#3A3347;stroke-width:7;stroke-linecap:round;stroke-linejoin:round;stroke-miterlimit:10;}
</style>
<g>
	<polyline class="Styl_x0020_grafiki_x0020_20" points="186.75,54.88 186.75,115.6 243.25,115.6 243.25,54.88 	"/>
	<polyline class="Styl_x0020_grafiki_x0020_21" points="209.05,115.6 209.05,54.88 186.75,54.88 186.75,115.6 	"/>
	<path class="Styl_x0020_grafiki_x0020_26" d="M194.53,114.94h40.94c25.67,0,46.47,20.81,46.47,46.47v202.64
		c0,6.11-4.95,11.06-11.06,11.06H159.12c-6.11,0-11.06-4.95-11.06-11.06V161.41C148.06,135.75,168.86,114.94,194.53,114.94z"/>
	<circle class="Styl_x0020_grafiki_x0020_20" cx="215" cy="220" r="44.64"/>
	<path class="Styl_x0020_grafiki_x0020_27" d="M181.42,375.12c-6.11,0-11.06-4.95-11.06-11.06V161.41
		c0-25.66,20.79-46.46,46.45-46.47h-22.28c-25.67,0-46.47,20.81-46.47,46.47v202.64c0,6.11,4.95,11.06,11.06,11.06h111.77
		c0,0,0.01,0,0.01,0H181.42z"/>
</g>
<path class="st2" d="M253.84,58.38h-77.67c-1.93,0-3.5-1.57-3.5-3.5s1.57-3.5,3.5-3.5h77.67c1.93,0,3.5,1.57,3.5,3.5
	S255.77,58.38,253.84,58.38z"/>
<path class="st2" d="M243.25,119.1c-1.93,0-3.5-1.57-3.5-3.5V54.88c0-1.93,1.57-3.5,3.5-3.5s3.5,1.57,3.5,3.5v60.72
	C246.75,117.54,245.18,119.1,243.25,119.1z"/>
<path class="st2" d="M186.75,119.1c-1.93,0-3.5-1.57-3.5-3.5V54.88c0-1.93,1.57-3.5,3.5-3.5s3.5,1.57,3.5,3.5v60.72
	C190.25,117.54,188.68,119.1,186.75,119.1z"/>
<path class="st2" d="M270.88,378.62H159.12c-8.03,0-14.56-6.53-14.56-14.56V161.41c0-27.55,22.42-49.97,49.97-49.97h40.94
	c27.55,0,49.97,22.42,49.97,49.97v202.64C285.44,372.09,278.91,378.62,270.88,378.62z M194.53,118.44
	c-23.69,0-42.97,19.28-42.97,42.97v202.64c0,4.17,3.39,7.56,7.56,7.56h111.77c4.17,0,7.56-3.39,7.56-7.56V161.41
	c0-23.69-19.28-42.97-42.97-42.97H194.53z"/>
<path class="st2" d="M215,268.14c-26.55,0-48.14-21.6-48.14-48.14s21.6-48.14,48.14-48.14c26.55,0,48.14,21.6,48.14,48.14
	S241.55,268.14,215,268.14z M215,178.86c-22.69,0-41.14,18.46-41.14,41.14s18.46,41.14,41.14,41.14c22.69,0,41.14-18.46,41.14-41.14
	S237.69,178.86,215,178.86z"/>
<path class="st2" d="M244.38,297.44h-58.75c-1.93,0-3.5-1.57-3.5-3.5s1.57-3.5,3.5-3.5h58.75c1.93,0,3.5,1.57,3.5,3.5
	S246.31,297.44,244.38,297.44z"/>
<path class="st2" d="M244.38,324.44h-58.75c-1.93,0-3.5-1.57-3.5-3.5s1.57-3.5,3.5-3.5h58.75c1.93,0,3.5,1.57,3.5,3.5
	S246.31,324.44,244.38,324.44z"/>
</svg>
