<svg width="430" height="430" viewBox="0 0 430 430" fill="none" xmlns="http://www.w3.org/2000/svg">
<path d="M389.26 108.93C388.94 108.497 388.523 108.146 388.041 107.907C387.56 107.667 387.028 107.544 386.49 107.55H347.18L98.94 107.46C98.6487 107.46 98.3608 107.523 98.0965 107.646C97.8322 107.768 97.5979 107.947 97.41 108.17C97.2237 108.392 97.0878 108.652 97.0118 108.932C96.9358 109.211 96.9216 109.504 96.97 109.79L125.06 276.39C125.107 276.671 125.214 276.938 125.373 277.175C125.532 277.411 125.74 277.611 125.982 277.76C126.224 277.91 126.496 278.006 126.778 278.042C127.061 278.078 127.348 278.054 127.62 277.97C129.26 277.46 134.25 277.08 140.56 276.59C147.22 276.08 155.51 275.45 165.4 274.32L311.1 257.72C332.1 255.33 353.98 236.87 359.86 216.57L378.62 151.87C384.31 132.26 389.33 114.94 389.82 113.23C390.068 112.519 390.147 111.76 390.05 111.014C389.952 110.267 389.682 109.553 389.26 108.93Z" fill="#fed74c"/>
<g style="mix-blend-mode:multiply" opacity="0.5">
<path d="M154 253.1C153.476 253.138 152.95 253.073 152.451 252.907C151.952 252.742 151.491 252.48 151.094 252.137C150.696 251.793 150.37 251.374 150.135 250.905C149.899 250.435 149.758 249.924 149.72 249.4L139.32 107.46H98.94C98.6487 107.46 98.3608 107.523 98.0965 107.646C97.8322 107.768 97.5979 107.947 97.41 108.17C97.2237 108.392 97.0878 108.652 97.0118 108.932C96.9358 109.211 96.9216 109.504 96.97 109.79L125.06 276.39C125.107 276.671 125.214 276.938 125.373 277.175C125.532 277.411 125.74 277.611 125.982 277.76C126.224 277.91 126.496 278.006 126.778 278.042C127.061 278.078 127.348 278.054 127.62 277.97C129.26 277.46 134.25 277.08 140.56 276.59C147.22 276.08 155.51 275.45 165.4 274.32L311.1 257.72C323.76 256.28 336.73 248.99 346.33 238.99L154 253.1Z" fill="#fed74c"/>
</g>
<path fill-rule="evenodd" clip-rule="evenodd" d="M127 276.05C126.252 272.631 126.252 272.631 126.251 272.631L126.244 272.633L126.233 272.635L126.203 272.642C126.18 272.647 126.15 272.654 126.114 272.663C126.041 272.68 125.941 272.704 125.819 272.735C125.574 272.798 125.234 272.891 124.819 273.016C123.994 273.266 122.857 273.652 121.584 274.205C119.105 275.284 115.798 277.13 113.389 280.118C109.943 284.361 107.679 290.718 110.384 296.406C113.165 302.253 120.238 305.45 131.11 305.45H306.48C308.413 305.45 309.98 303.883 309.98 301.95C309.98 300.017 308.413 298.45 306.48 298.45H131.11C121.142 298.45 117.715 295.522 116.706 293.399C115.622 291.12 116.275 287.666 118.826 284.528L118.836 284.515C120.227 282.787 122.362 281.501 124.376 280.625C125.35 280.201 126.224 279.904 126.846 279.716C127.156 279.622 127.4 279.557 127.557 279.516C127.636 279.496 127.693 279.482 127.725 279.475L127.756 279.467M127.756 279.467C127.753 279.468 127.752 279.468 127.749 279.469L127.753 279.468L127.756 279.467C127.757 279.467 127.757 279.467 127.756 279.467C129.639 279.051 130.831 277.188 130.419 275.302C130.006 273.414 128.141 272.218 126.252 272.631L127 276.05" fill="#0155b7"/>
<path d="M144.14 298C149.628 298 154.994 299.628 159.557 302.677C164.121 305.726 167.677 310.06 169.778 315.131C171.878 320.201 172.428 325.781 171.357 331.164C170.286 336.547 167.643 341.491 163.762 345.372C159.881 349.253 154.937 351.896 149.554 352.967C144.171 354.038 138.591 353.488 133.521 351.388C128.45 349.287 124.116 345.731 121.067 341.167C118.018 336.604 116.39 331.238 116.39 325.75C116.393 318.391 119.317 311.334 124.521 306.131C129.724 300.927 136.781 298.003 144.14 298Z" fill="#646e78"/>
<path d="M308.33 298C313.818 298 319.184 299.628 323.747 302.677C328.311 305.726 331.867 310.06 333.968 315.131C336.068 320.201 336.617 325.781 335.547 331.164C334.476 336.547 331.833 341.491 327.952 345.372C324.071 349.253 319.127 351.896 313.744 352.967C308.361 354.038 302.781 353.488 297.711 351.388C292.64 349.287 288.306 345.731 285.257 341.167C282.207 336.604 280.58 331.238 280.58 325.75C280.583 318.391 283.507 311.334 288.711 306.131C293.914 300.927 300.971 298.003 308.33 298Z" fill="#646e78"/>
<path fill-rule="evenodd" clip-rule="evenodd" d="M38.43 72.55C38.43 70.617 39.997 69.05 41.93 69.05H67.37C75.7396 69.05 83.6695 73.8943 89.7798 80.9515C95.9371 88.0631 100.595 97.7842 102.391 108.459L102.392 108.459L130.482 275.459C130.802 277.366 129.517 279.171 127.611 279.492C125.704 279.812 123.899 278.527 123.578 276.621L95.4885 109.621C95.4885 109.621 95.4885 109.621 95.4885 109.621C93.8952 100.156 89.7678 91.6318 84.4877 85.5335C79.1605 79.3806 73.0004 76.05 67.37 76.05H41.93C39.997 76.05 38.43 74.483 38.43 72.55Z" fill="#0155b7"/>
<g style="mix-blend-mode:multiply" opacity="0.5">
<path d="M150.54 345.92C145.664 345.922 140.873 344.639 136.651 342.199C132.429 339.76 128.924 336.25 126.491 332.025C124.057 327.799 122.78 323.007 122.789 318.131C122.797 313.255 124.091 308.467 126.54 304.25C123.395 306.826 120.855 310.061 119.098 313.726C117.342 317.392 116.412 321.399 116.374 325.463C116.337 329.528 117.193 333.551 118.882 337.248C120.571 340.946 123.051 344.227 126.148 346.86C129.245 349.493 132.882 351.413 136.803 352.486C140.724 353.558 144.832 353.756 148.838 353.065C152.844 352.374 156.649 350.812 159.984 348.489C163.319 346.166 166.104 343.138 168.14 339.62C163.184 343.703 156.961 345.93 150.54 345.92Z" fill="#646e78"/>
</g>
<g style="mix-blend-mode:multiply" opacity="0.5">
<path d="M314.73 345.92C309.854 345.922 305.063 344.639 300.841 342.199C296.619 339.76 293.114 336.25 290.681 332.025C288.247 327.799 286.97 323.007 286.979 318.131C286.987 313.255 288.281 308.467 290.73 304.25C287.585 306.826 285.045 310.061 283.288 313.726C281.532 317.392 280.602 321.399 280.564 325.463C280.527 329.528 281.383 333.551 283.072 337.248C284.761 340.946 287.241 344.227 290.338 346.86C293.435 349.493 297.072 351.413 300.993 352.486C304.914 353.558 309.022 353.756 313.028 353.065C317.034 352.374 320.839 350.812 324.174 348.489C327.509 346.166 330.294 343.138 332.33 339.62C327.374 343.703 321.151 345.93 314.73 345.92Z" fill="#646e78"/>
</g>
</svg>
